<mxfile host="app.diagrams.net" modified="2022-03-03T09:14:16.481Z" agent="5.0 (Macintosh; Intel Mac OS X 10_15_7) AppleWebKit/537.36 (KHTML, like Gecko) Chrome/98.0.4758.109 Safari/537.36" etag="qyY02rAJso7ETBU1uZNH" version="16.4.6" type="github">
  <diagram id="LpDmw_v0XFRbQo6Zy4TT" name="Page-1">
    <mxGraphModel dx="1255" dy="754" grid="1" gridSize="10" guides="1" tooltips="1" connect="1" arrows="1" fold="1" page="1" pageScale="1" pageWidth="827" pageHeight="1169" math="0" shadow="0">
      <root>
        <mxCell id="0" />
        <mxCell id="1" parent="0" />
        <mxCell id="vYiJmPAMhAc7vUvn6BcW-1" value="Crowd" style="rounded=0;whiteSpace=wrap;html=1;" vertex="1" parent="1">
          <mxGeometry x="320" y="150" width="110" height="40" as="geometry" />
        </mxCell>
        <mxCell id="vYiJmPAMhAc7vUvn6BcW-4" value="" style="endArrow=classic;html=1;rounded=0;exitX=0.5;exitY=1;exitDx=0;exitDy=0;entryX=0.5;entryY=0;entryDx=0;entryDy=0;" edge="1" parent="1" source="vYiJmPAMhAc7vUvn6BcW-1" target="vYiJmPAMhAc7vUvn6BcW-6">
          <mxGeometry width="50" height="50" relative="1" as="geometry">
            <mxPoint x="130" y="260" as="sourcePoint" />
            <mxPoint x="225" y="270" as="targetPoint" />
          </mxGeometry>
        </mxCell>
        <mxCell id="vYiJmPAMhAc7vUvn6BcW-6" value="File" style="rounded=0;whiteSpace=wrap;html=1;" vertex="1" parent="1">
          <mxGeometry x="210" y="270" width="80" height="100" as="geometry" />
        </mxCell>
        <mxCell id="vYiJmPAMhAc7vUvn6BcW-8" value="Serving" style="rounded=0;whiteSpace=wrap;html=1;" vertex="1" parent="1">
          <mxGeometry x="440" y="270" width="80" height="100" as="geometry" />
        </mxCell>
        <mxCell id="vYiJmPAMhAc7vUvn6BcW-9" value="" style="endArrow=classic;html=1;rounded=0;exitX=0.5;exitY=1;exitDx=0;exitDy=0;entryX=0.5;entryY=0;entryDx=0;entryDy=0;" edge="1" parent="1" source="vYiJmPAMhAc7vUvn6BcW-1" target="vYiJmPAMhAc7vUvn6BcW-8">
          <mxGeometry width="50" height="50" relative="1" as="geometry">
            <mxPoint x="385" y="200" as="sourcePoint" />
            <mxPoint x="250" y="280" as="targetPoint" />
          </mxGeometry>
        </mxCell>
      </root>
    </mxGraphModel>
  </diagram>
</mxfile>
